<?xml version="1.0" encoding="UTF-8"?>
<svg width="442px" height="454px" viewBox="0 0 442 454" version="1.1" xmlns="http://www.w3.org/2000/svg" xmlns:xlink="http://www.w3.org/1999/xlink">
    <!-- Generator: Sketch 52.6 (67491) - http://www.bohemiancoding.com/sketch -->
    <title>Group 5</title>
    <desc>Created with Sketch.</desc>
    <defs>
        <linearGradient x1="50%" y1="0%" x2="50%" y2="100%" id="linearGradient-1">
            <stop stop-color="#F1EAB9" offset="1.39992775%"></stop>
            <stop stop-color="#FF8C8C" offset="100%"></stop>
        </linearGradient>
        <filter x="0.0%" y="0.0%" width="100.0%" height="100.0%" filterUnits="objectBoundingBox" id="filter-2">
            <feGaussianBlur stdDeviation="0" in="SourceGraphic"></feGaussianBlur>
        </filter>
        <filter x="-17.8%" y="-19.4%" width="134.2%" height="138.7%" filterUnits="objectBoundingBox" id="filter-3">
            <feOffset dx="0" dy="2" in="SourceAlpha" result="shadowOffsetOuter1"></feOffset>
            <feGaussianBlur stdDeviation="2" in="shadowOffsetOuter1" result="shadowBlurOuter1"></feGaussianBlur>
            <feColorMatrix values="0 0 0 0 0.341358418   0 0 0 0 0.183935847   0 0 0 0 0  0 0 0 1 0" type="matrix" in="shadowBlurOuter1" result="shadowMatrixOuter1"></feColorMatrix>
            <feMerge>
                <feMergeNode in="shadowMatrixOuter1"></feMergeNode>
                <feMergeNode in="SourceGraphic"></feMergeNode>
            </feMerge>
        </filter>
        <filter x="-50.0%" y="-79.0%" width="200.0%" height="257.9%" filterUnits="objectBoundingBox" id="filter-4">
            <feGaussianBlur stdDeviation="1" in="SourceGraphic"></feGaussianBlur>
        </filter>
        <path d="M185,53 C196.333333,46.3333333 206,43 214,43 C222,43 230.666667,51.3333333 240,68 L264,100 L283,124 C282.012448,127.079629 282.345782,130.746295 284,135 C286.481328,141.380557 284,143 284,153 C284,159.666667 279.666667,169 271,181 C271.432619,168.678419 271.432619,159.345085 271,153 C270.567381,146.654915 269.567381,141.321581 268,137 C265.333333,128.333333 264,120 264,112 C264,108.234318 262.329409,105.87941 261,103 C260.003432,100.841501 258.336765,97.8415006 256,94 L236,71 C230.352637,62.6152853 223.019304,56.9486187 214,54 C204.980696,51.0513813 195.314029,50.718048 185,53 Z" id="path-5"></path>
        <filter x="-7.0%" y="-5.1%" width="114.0%" height="110.1%" filterUnits="objectBoundingBox" id="filter-6">
            <feGaussianBlur stdDeviation="1" in="SourceGraphic"></feGaussianBlur>
        </filter>
        <filter x="-9.0%" y="-6.5%" width="118.0%" height="113.0%" filterUnits="objectBoundingBox" id="filter-7">
            <feOffset dx="0" dy="0" in="SourceAlpha" result="shadowOffsetOuter1"></feOffset>
            <feGaussianBlur stdDeviation="2" in="shadowOffsetOuter1" result="shadowBlurOuter1"></feGaussianBlur>
            <feColorMatrix values="0 0 0 0 0   0 0 0 0 0   0 0 0 0 0  0 0 0 0.5 0" type="matrix" in="shadowBlurOuter1"></feColorMatrix>
        </filter>
        <path d="M170,53 C153.95188,47.6228189 142.285213,47.6228189 135,53 C124.07218,61.0657716 124.802966,76.1907886 121,88 C118.464689,95.8728076 117.464689,104.539474 118,114 L131,107 C131.386288,95.2834961 134.719622,84.6168294 141,75 C147.280378,65.3831706 156.947045,58.0498373 170,53 Z" id="path-8"></path>
        <filter x="-13.4%" y="-7.7%" width="126.9%" height="121.5%" filterUnits="objectBoundingBox" id="filter-9">
            <feGaussianBlur stdDeviation="1" in="SourceGraphic"></feGaussianBlur>
        </filter>
        <filter x="-19.2%" y="-12.3%" width="138.4%" height="130.8%" filterUnits="objectBoundingBox" id="filter-10">
            <feOffset dx="0" dy="2" in="SourceAlpha" result="shadowOffsetOuter1"></feOffset>
            <feGaussianBlur stdDeviation="2" in="shadowOffsetOuter1" result="shadowBlurOuter1"></feGaussianBlur>
            <feColorMatrix values="0 0 0 0 0   0 0 0 0 0   0 0 0 0 0  0 0 0 0.5 0" type="matrix" in="shadowBlurOuter1"></feColorMatrix>
        </filter>
        <path d="M186,52 C171.333333,44.6666667 154.666667,44 136,50 C108,59 108,153 102,167 C96,181 83.7834626,187.062015 83,190 C82.2165374,192.937985 96.6601945,182.267961 98,182 C98.8932036,181.821359 98.8932036,183.488026 98,187 C102.666667,187 106.333333,184.666667 109,180 C111.666667,175.333333 114,158.333333 116,129 C122,83 129,58.3333333 137,55 C145,51.6666667 153,52.3333333 161,57 L186,52 Z" id="path-11"></path>
        <filter x="-5.4%" y="-4.2%" width="111.2%" height="108.3%" filterUnits="objectBoundingBox" id="filter-12">
            <feOffset dx="0" dy="0" in="SourceAlpha" result="shadowOffsetOuter1"></feOffset>
            <feGaussianBlur stdDeviation="2" in="shadowOffsetOuter1" result="shadowBlurOuter1"></feGaussianBlur>
            <feColorMatrix values="0 0 0 0 0   0 0 0 0 0   0 0 0 0 0  0 0 0 0.5 0" type="matrix" in="shadowBlurOuter1"></feColorMatrix>
        </filter>
        <filter x="-17.8%" y="-19.0%" width="134.2%" height="138.1%" filterUnits="objectBoundingBox" id="filter-13">
            <feOffset dx="0" dy="2" in="SourceAlpha" result="shadowOffsetOuter1"></feOffset>
            <feGaussianBlur stdDeviation="2" in="shadowOffsetOuter1" result="shadowBlurOuter1"></feGaussianBlur>
            <feColorMatrix values="0 0 0 0 0.341358418   0 0 0 0 0.183935847   0 0 0 0 0  0 0 0 1 0" type="matrix" in="shadowBlurOuter1" result="shadowMatrixOuter1"></feColorMatrix>
            <feMerge>
                <feMergeNode in="shadowMatrixOuter1"></feMergeNode>
                <feMergeNode in="SourceGraphic"></feMergeNode>
            </feMerge>
        </filter>
        <filter x="-50.0%" y="-78.6%" width="200.0%" height="257.1%" filterUnits="objectBoundingBox" id="filter-14">
            <feGaussianBlur stdDeviation="1" in="SourceGraphic"></feGaussianBlur>
        </filter>
        <filter x="-98.7%" y="-9.4%" width="297.4%" height="118.7%" filterUnits="objectBoundingBox" id="filter-15">
            <feGaussianBlur stdDeviation="1" in="SourceGraphic"></feGaussianBlur>
        </filter>
        <filter x="0.0%" y="0.0%" width="100.0%" height="100.0%" filterUnits="objectBoundingBox" id="filter-16">
            <feGaussianBlur stdDeviation="1" in="SourceGraphic"></feGaussianBlur>
        </filter>
        <filter x="-25.0%" y="-33.3%" width="150.0%" height="166.5%" filterUnits="objectBoundingBox" id="filter-17">
            <feGaussianBlur stdDeviation="1" in="SourceGraphic"></feGaussianBlur>
        </filter>
        <filter x="-42.9%" y="-37.5%" width="185.7%" height="175.0%" filterUnits="objectBoundingBox" id="filter-18">
            <feGaussianBlur stdDeviation="1" in="SourceGraphic"></feGaussianBlur>
        </filter>
        <filter x="-12.8%" y="-29.9%" width="125.7%" height="159.8%" filterUnits="objectBoundingBox" id="filter-19">
            <feGaussianBlur stdDeviation="1" in="SourceGraphic"></feGaussianBlur>
        </filter>
        <filter x="-11.5%" y="-46.7%" width="123.1%" height="193.4%" filterUnits="objectBoundingBox" id="filter-20">
            <feGaussianBlur stdDeviation="1" in="SourceGraphic"></feGaussianBlur>
        </filter>
        <linearGradient x1="50%" y1="41.0081524%" x2="50%" y2="87.7280527%" id="linearGradient-21">
            <stop stop-color="#965747" offset="0%"></stop>
            <stop stop-color="#E6D3D3" offset="100%"></stop>
        </linearGradient>
        <filter x="-17.9%" y="-13.1%" width="136.9%" height="126.2%" filterUnits="objectBoundingBox" id="filter-22">
            <feGaussianBlur stdDeviation="2" in="SourceGraphic"></feGaussianBlur>
        </filter>
        <filter x="-38.0%" y="-13.1%" width="176.9%" height="126.8%" filterUnits="objectBoundingBox" id="filter-23">
            <feGaussianBlur stdDeviation="2" in="SourceGraphic"></feGaussianBlur>
        </filter>
        <filter x="-8.3%" y="-57.5%" width="116.4%" height="213.8%" filterUnits="objectBoundingBox" id="filter-24">
            <feGaussianBlur stdDeviation="1" in="SourceGraphic"></feGaussianBlur>
        </filter>
        <filter x="-23.1%" y="-11.8%" width="145.8%" height="124.0%" filterUnits="objectBoundingBox" id="filter-25">
            <feGaussianBlur stdDeviation="1" in="SourceGraphic"></feGaussianBlur>
        </filter>
        <filter x="-23.2%" y="-10.2%" width="148.0%" height="121.8%" filterUnits="objectBoundingBox" id="filter-26">
            <feGaussianBlur stdDeviation="1" in="SourceGraphic"></feGaussianBlur>
        </filter>
        <filter x="-21.4%" y="-49.8%" width="142.9%" height="199.5%" filterUnits="objectBoundingBox" id="filter-27">
            <feGaussianBlur stdDeviation="1" in="SourceGraphic"></feGaussianBlur>
        </filter>
        <linearGradient x1="50%" y1="0%" x2="50%" y2="98.0649386%" id="linearGradient-28">
            <stop stop-color="#FABF98" offset="0%"></stop>
            <stop stop-color="#EEB38D" offset="44.8636483%"></stop>
            <stop stop-color="#F9BF98" offset="100%"></stop>
        </linearGradient>
        <filter x="-49.3%" y="-67.7%" width="204.0%" height="236.9%" filterUnits="objectBoundingBox" id="filter-29">
            <feGaussianBlur stdDeviation="1" in="SourceGraphic"></feGaussianBlur>
        </filter>
        <filter x="-24.8%" y="-41.6%" width="149.5%" height="183.1%" filterUnits="objectBoundingBox" id="filter-30">
            <feGaussianBlur stdDeviation="1" in="SourceGraphic"></feGaussianBlur>
        </filter>
        <filter x="-46.6%" y="-27.6%" width="187.4%" height="156.8%" filterUnits="objectBoundingBox" id="filter-31">
            <feGaussianBlur stdDeviation="1" in="SourceGraphic"></feGaussianBlur>
        </filter>
        <filter x="-41.0%" y="-23.5%" width="184.7%" height="149.8%" filterUnits="objectBoundingBox" id="filter-32">
            <feGaussianBlur stdDeviation="1" in="SourceGraphic"></feGaussianBlur>
        </filter>
        <path d="M256,181 C254.802583,180.850323 253.340703,181.864323 253,183 C252.659297,184.135677 253.442955,185.867869 254.5,186 C255.557045,186.132131 256.690603,184.531324 257,183.5 C257.309397,182.468676 257.197417,181.149677 256,181 Z" id="path-33"></path>
        <filter x="-94.6%" y="-59.7%" width="289.2%" height="259.3%" filterUnits="objectBoundingBox" id="filter-34">
            <feGaussianBlur stdDeviation="1" in="SourceGraphic"></feGaussianBlur>
        </filter>
        <filter x="-118.3%" y="-79.6%" width="336.5%" height="299.1%" filterUnits="objectBoundingBox" id="filter-35">
            <feOffset dx="0" dy="1" in="SourceAlpha" result="shadowOffsetOuter1"></feOffset>
            <feGaussianBlur stdDeviation="0.5" in="shadowOffsetOuter1" result="shadowBlurOuter1"></feGaussianBlur>
            <feColorMatrix values="0 0 0 0 0.600299954   0 0 0 0 0.400384277   0 0 0 0 0.305310845  0 0 0 1 0" type="matrix" in="shadowBlurOuter1"></feColorMatrix>
        </filter>
    </defs>
    <g id="Page-1" stroke="none" stroke-width="1" fill="none" fill-rule="evenodd">
        <g id="Artboard" transform="translate(-633.000000, -258.000000)">
            <g id="Group-5" transform="translate(633.000000, 258.000000)">
                <g id="Group-4">
                    <g id="Group-3">
                        <path d="M311,260 C342.04753,272.13559 363.714196,281.802256 376,289 C394.428705,299.796615 394.428705,305 410,318 C425.571295,331 434,382 438,397 C442,412 439.181229,419.332519 440,431 C440.545847,438.77832 441.212514,446.444987 442,454 L351,454 L291,294 L311,260 Z" id="Path-62" fill="#FF8C8C"></path>
                        <path d="M73,288 C66,292 52,295 44,301 C38.6666667,305 28.6666667,335.333333 14,392 L-1.42108547e-14,454 L60,454 L155,299 L87,270 C82.3333333,279.333333 77.6666667,285.333333 73,288 Z" id="Path-61" fill="#FF8C8C"></path>
                        <path d="M149,275 L140,281 C163.333333,307 186.333333,319 209,317 C231.666667,315 248.666667,312.333333 260,309 L253,294 L205,305 C202.333333,303 197.666667,302 191,302 C186.966277,302 176.938744,300.101595 169,294 C165.545414,291.344859 158.878747,285.011525 149,275 Z" id="Path-60" fill="#FFFFFF"></path>
                        <path d="M158,229 L164,259.01925 L150,277 C162.556596,295.666667 177.223262,305 194,305 C208,305 201.625852,305.227026 207,305 C232.501885,303.922694 267.986982,296.66497 279,284 C287.889233,273.777382 279.5559,257.777382 254,236 L254,213 C234.026087,235.913406 217.026087,248.246739 203,250 C188.973913,251.753261 173.973913,244.753261 158,229 Z" id="Path-50" fill="#FABF98"></path>
                        <path d="M141,281 C135.137985,286.056408 130.471319,291.056408 127,296 C92.3773504,345.306984 75.0054199,391.957995 68,405 C59.9410193,420.003421 56.9410193,436.336755 59,454 L360,454 C367.826511,454.022904 364.826511,435.022904 351,397 C330.260234,339.965644 323.05753,299.797236 320,284 C319.590987,281.886768 308.562106,268.384651 307,268 C296.719619,265.46857 271.85743,308.388903 217,315 C207.895972,316.097164 190.448723,315.532882 169,305 C164.109941,302.598625 154.776607,294.598625 141,281 Z" id="Path-49" fill="url(#linearGradient-1)"></path>
                        <path d="M96.7452418,454 C95.7515861,450.673698 95.7515861,444.340364 96.7452418,435 C97.7388976,425.659636 99.4055643,416.326302 101.745242,407 C116.963582,415.162339 128.963582,422.995672 137.745242,430.5 C146.526902,438.004328 152.860235,445.837661 156.745242,454 L177.745242,454 C176.411908,449.333333 179.078575,438 185.745242,420 C192.411908,402 201.078575,387.666667 211.745242,377 C222.411908,393 229.078575,407.333333 231.745242,420 C234.411908,432.666667 236.078575,444 236.745242,454 L270.745242,454 C275.966349,448.404653 282.633016,443.737986 290.745242,440 C298.857468,436.262014 309.190801,433.095347 321.745242,430.5 C321.745242,440.166667 321.745242,446 321.745242,448 C321.745242,450 321.745242,452 321.745242,454 L96.7452418,454 Z" id="Path-100" fill="#FFFFFF"></path>
                        <path d="M185.414066,50.9957537 C154.202492,53.9662676 139.150563,67.7678034 128.025044,105.455174 C116.899524,143.142545 134.065993,194.570589 138.093293,201.501788 C139.40476,203.758893 144.835985,210.455406 150.48366,217.968912 C150.988307,218.64028 151.494682,219.31817 152,220 C163.205658,235.119872 179.101945,253.169135 201,252.000524 C224.33569,250.755191 243.646147,229.081051 255.891813,212 C261.454916,204.240222 262.87229,204.141179 267.973712,194.570589 C273.075135,185 273.075135,161.935128 269.987362,138.130826 C268.016224,122.934892 262.939588,105.455174 255.891813,94.5632901 C233.728448,60.3112305 216.62564,48.0252399 185.414066,50.9957537 Z" id="Path-5" fill="#FABF98" filter="url(#filter-2)"></path>
                        <path d="M169,109 L174,108 C166.651792,105.135505 160.985125,103.468838 157,103 C153.014875,102.531162 146.348208,103.197828 137,105 C137.719221,105.670815 138.385888,106.004148 139,106 C146.148741,105.951713 152.705129,105.259505 157,106 C161.848296,106.835913 165.848296,107.835913 169,109 Z" id="Path-74" fill="#3F230D"></path>
                        <g id="Group-2" transform="translate(230.196376, 121.245722) rotate(-10.000000) translate(-230.196376, -121.245722) translate(204.696376, 109.245722)">
                            <path d="M6,10 C7.64056228,8.36273666 9.30722894,7.36273666 11,7 C12.6927711,6.63726334 15.6927711,6.63726334 20,7 C20.6666667,7.33333333 21,7.66666667 21,8 C21,8.33333333 20.6666667,8.45465792 20,8.36397375 C16.0056567,8.22071256 13.0056567,8.22071256 11,8.36397375 C8.99434334,8.50723494 7.32767668,9.05257703 6,10 Z" id="Path-16" fill="#000000"></path>
                            <path d="M12,20 C17.3333333,22.6666667 21.3333333,24 24,24 C26.6666667,24 28.6666667,23.6666667 30,23 C30.8284552,21.8284552 31.1617886,21.1617886 31,21 C30.8382114,20.8382114 29.8382114,21.185278 28,22.0411998 C26,22.6803999 24.6666667,23 24,23 C23.3333333,23 19.3333333,22 12,20 Z" id="Path-17" fill="#000000"></path>
                            <path d="M18,5 C19.2333003,3.8650715 22.2333003,3.8650715 27,5 C31.7666997,6.1349285 35.7666997,7.80159517 39,10 C39.2562386,11.205214 39.2562386,11.8718807 39,12 C38.7437614,12.1281193 38.0770947,11.794786 37,11 C32.9711856,8.49967264 29.6378523,6.83300597 27,6 C24.3621477,5.16699403 21.3621477,4.83366069 18,5 Z" id="Path-18" fill="#000000"></path>
                            <path d="M12,3 C14.8707481,1 18.2040815,2.29915811e-14 22,2.30926389e-14 C25.7959185,2.31884188e-14 29.7959185,1 34,3 C34.1194846,4.21384874 34.1194846,4.88051541 34,5 C33.8805154,5.11948459 33.2138487,5.11948459 32,5 C27.8355756,2.47234679 24.5022423,1.13901346 22,1 C19.4977577,0.86098654 16.4977577,1.52765321 13,3 C12.0850485,4.54252426 11.4183818,5.20919092 11,5 C10.5816182,4.79080908 10.9149515,4.12414241 12,3 Z" id="Path-19" fill="#000000"></path>
                            <path d="M45,17 L48,17 C49.9010064,19 50.5676731,20 50,20" id="Path-29" stroke="#000000"></path>
                            <path d="M44,15 C46,14.6443061 47.6666667,13.9776395 49,13 C50.3333333,12.0223605 51,11.0223605 51,10" id="Path-28" stroke="#000000"></path>
                            <polygon id="Path-30" stroke="#000000" fill="#000000" points="-1.77635684e-14 15 2 13 9 13 11 14 35 14 35 13 37 13 37 16 39 16 41 15 43 14 42 15 39 17 37 17 36 18 36 17 35 17 35 19 33 19 33 17 30 17 30 18 28 18 28 17 15 17 13 16 9 16 9 15"></polygon>
                        </g>
                        <g id="Group-2" transform="translate(150.274961, 129.749559) scale(-1, 1) rotate(4.000000) translate(-150.274961, -129.749559) translate(124.774961, 117.749559)">
                            <path d="M6,10 C7.64056228,8.36273666 9.30722894,7.36273666 11,7 C12.6927711,6.63726334 15.6927711,6.63726334 20,7 C20.6666667,7.33333333 21,7.66666667 21,8 C21,8.33333333 20.6666667,8.45465792 20,8.36397375 C16.0056567,8.22071256 13.0056567,8.22071256 11,8.36397375 C8.99434334,8.50723494 7.32767668,9.05257703 6,10 Z" id="Path-16" fill="#000000"></path>
                            <path d="M12,20 C17.3333333,22.6666667 21.3333333,24 24,24 C26.6666667,24 28.6666667,23.6666667 30,23 C30.8284552,21.8284552 31.1617886,21.1617886 31,21 C30.8382114,20.8382114 29.8382114,21.185278 28,22.0411998 C26,22.6803999 24.6666667,23 24,23 C23.3333333,23 19.3333333,22 12,20 Z" id="Path-17" fill="#000000"></path>
                            <path d="M18,5 C19.2333003,3.8650715 22.2333003,3.8650715 27,5 C31.7666997,6.1349285 35.7666997,7.80159517 39,10 C39.2562386,11.205214 39.2562386,11.8718807 39,12 C38.7437614,12.1281193 38.0770947,11.794786 37,11 C32.9711856,8.49967264 29.6378523,6.83300597 27,6 C24.3621477,5.16699403 21.3621477,4.83366069 18,5 Z" id="Path-18" fill="#000000"></path>
                            <path d="M12,3 C14.8707481,1 18.2040815,2.29915811e-14 22,2.30926389e-14 C25.7959185,2.31884188e-14 29.7959185,1 34,3 C34.1194846,4.21384874 34.1194846,4.88051541 34,5 C33.8805154,5.11948459 33.2138487,5.11948459 32,5 C27.8355756,2.47234679 24.5022423,1.13901346 22,1 C19.4977577,0.86098654 16.4977577,1.52765321 13,3 C12.0850485,4.54252426 11.4183818,5.20919092 11,5 C10.5816182,4.79080908 10.9149515,4.12414241 12,3 Z" id="Path-19" fill="#000000"></path>
                            <path d="M45,17 L48,17 C49.9010064,19 50.5676731,20 50,20" id="Path-29" stroke="#000000"></path>
                            <path d="M44,15 C46,14.6443061 47.6666667,13.9776395 49,13 C50.3333333,12.0223605 51,11.0223605 51,10" id="Path-28" stroke="#000000"></path>
                            <polygon id="Path-30" stroke="#000000" fill="#000000" points="-1.77635684e-14 15 2 13 9 13 11 14 35 14 35 13 37 13 37 16 39 16 41 15 43 14 42 15 39 17 37 17 36 18 36 17 35 17 35 19 33 19 33 17 30 17 30 18 28 18 28 17 15 17 13 16 9 16 9 15"></polygon>
                        </g>
                        <g id="Group" filter="url(#filter-3)" opacity="0.85030692" transform="translate(230.701805, 124.637846) scale(-1, 1) rotate(8.000000) translate(-230.701805, -124.637846) translate(194.201805, 93.637846)">
                            <path d="M1,11.3973162 C-1,13.2968689 0.839314517,20.9291644 1,21.844856 C1.16068548,22.7605477 2,21.844856 3,22.7946324 C4,23.7444087 8,61.7354627 36,61.7354627 C50.0387306,61.7354627 62.2604566,54.650221 68,44.6394884 C73.7078744,34.6839919 72.9861676,21.8238358 68,14.2466452 C58,-0.949776349 40,1.8995527 34,0.949776349 C28,1.62536651e-13 9.94136215,8.41366586 7,9.49776349 C4.05863785,10.5818611 3,9.49776349 1,11.3973162 Z" id="Path" fill="#FF6F11" opacity="0.802269345"></path>
                            <path d="M38,6.64843444 C17,6.64843444 10,19.9453033 10,21.844856 C10,23.7444087 9,57.9363573 38,56.9865809 C67,56.0368046 67,24.6941851 65,21.844856 C63,18.995527 59,6.64843444 38,6.64843444 Z" id="Path-2" fill="#341925" opacity="0.81"></path>
                            <ellipse id="Oval" fill="#8B3800" filter="url(#filter-4)" cx="5" cy="17.0959743" rx="3" ry="1.8995527"></ellipse>
                            <path d="M1,13.2968689 C7.66666667,12.6636847 10.6666667,13.9300531 10,17.0959743 C9.33333333,20.2618954 6.33333333,21.5282639 1,20.8950797" id="Path-3" stroke="#8B3800"></path>
                        </g>
                        <path d="M240.803736,30.1661912 C242.136194,35.0009466 245.756884,43.3342799 251.665805,55.1661912 C257.574726,66.9981026 263.609209,77.9981026 269.769253,88.1661912 C278.212004,98.866201 283.039591,110.532868 284.252012,123.166191 C286.070644,142.116177 277.973739,151.216136 277.010633,171.166191 C276.368562,184.466228 277.334079,198.466228 279.907184,213.166191 C282.335518,241.690546 287.645863,267.357213 295.838219,290.166191 C304.030575,312.97517 313.685747,328.97517 324.803736,338.166191 C324.190347,336.659824 323.734053,335.536226 323.434855,334.795398 C316.090292,316.609913 310.753482,301.733511 307.424426,290.166191 C302.125704,271.754963 304.16195,265.943338 302.35546,260.166191 C301.868654,258.609386 302.448718,256.642956 302.35546,254.166191 C302.263823,251.732468 302.263823,247.065801 302.35546,240.166191 L302.35546,184.166191 L304.527874,141.166191 L295.838219,113.166191 L261.079598,38.1661912 L240.803736,28.1661912 L240.803736,30.1661912 Z" id="Path-46" fill="#693B14" transform="translate(282.803736, 183.166191) rotate(-11.000000) translate(-282.803736, -183.166191) "></path>
                        <path d="M292.685068,158 C292.124325,187.12255 291.328557,209.455883 290.297765,225 C289.266973,240.544117 287.675439,254.210783 285.523161,266 C280.422893,281.843236 277.398976,296.843236 276.451412,311 C275.030065,332.235147 277.327168,355.476679 278.361254,373 C279.050644,384.682214 280.164718,393.682214 281.703477,400 C282.340091,400.666667 282.658398,391.666667 282.658398,373 C282.658398,345 299.326444,287.701041 301.279356,250 C302.581298,224.865973 299.716535,194.199306 292.685068,158 Z" id="Path-24" fill="#693B14"></path>
                        <path d="M280.945443,162 C279.771015,191.12255 278.104348,213.455883 275.945443,229 C273.786538,244.544117 270.453205,258.210783 265.945443,270 C257.930036,286.509902 252.930036,301.843236 250.945443,316 C247.968553,337.235147 248.779639,359.476679 250.945443,377 C252.389312,388.682214 254.722646,397.682214 257.945443,404 C259.278776,404.666667 259.945443,395.666667 259.945443,377 C259.945443,360.937897 265.377627,335.114674 275.945443,309 C283.799801,289.590694 297.201569,270.073969 298.945443,254 C301.672248,228.865973 295.672248,198.199306 280.945443,162 Z" id="Path-24" fill="#693B14"></path>
                        <path d="M99,175 C95.6963881,194.95617 90.6963881,214.289504 84,233 C77.3036119,251.710496 68.6369452,267.377163 58,280 L53,286 C55.1207153,286.811647 58.787382,284.811647 64,280 C69.212618,275.188353 74.5459513,269.521686 80,263 C92.6666667,256.666667 101,247.333333 105,235 C109,222.666667 109,205.666667 105,184 C102.799497,180.621552 101.466164,178.621552 101,178 C100.533836,177.378448 99.8671692,176.378448 99,175 C95.4278686,178.27031 93.0945353,180.27031 92,181 C90.9054647,181.72969 93.2387981,179.72969 99,175 Z" id="Path-54" fill="#3F230D"></path>
                        <path d="M274,187 L268,211 C263.24303,236.118183 259.909697,253.451517 258,263 C256.090303,272.548483 254.090303,281.881817 252,291 C247.044257,308.95293 244.710924,319.95293 245,324 C245.433615,330.070605 246.870779,324.403573 252,315 C257.129221,305.596427 252.584376,313.847175 263,291 C269.943749,275.76855 277.277082,262.435217 285,251 L285,218 L274,187 Z" id="Path-47" fill="#3F230D"></path>
                        <path d="M274,187 L268,211 C263.24303,236.118183 259.909697,253.451517 258,263 C256.090303,272.548483 254.090303,281.881817 252,291 C247.044257,308.95293 244.710924,319.95293 245,324 C245.433615,330.070605 246.870779,324.403573 252,315 C257.129221,305.596427 252.584376,313.847175 263,291 C269.943749,275.76855 277.277082,262.435217 285,251 L285,218 L274,187 Z" id="Path-47" fill="#3F230D"></path>
                        <path d="M221,41 C222.840061,45.8347553 227.840061,54.1680887 236,66 C244.159939,77.8319113 252.493272,88.8319113 261,99 C272.659037,109.70001 279.325704,121.366676 281,134 C283.511444,152.949985 272.330004,162.049945 271,182 C270.113331,195.300037 271.446664,209.300037 275,224 C278.353413,252.524355 285.686747,278.191022 297,301 C308.313253,323.808978 321.646587,339.808978 337,349 C336.152939,347.493632 335.522819,346.370035 335.109641,345.629207 C324.967148,327.443722 317.597268,312.567319 313,301 C305.682717,282.588772 308.494677,276.777147 306,271 C305.327743,269.443195 306.128785,267.476765 306,265 C305.873453,262.566276 305.873453,257.89961 306,251 L306,195 L309,152 L297,124 L249,49 L221,39 L221,41 Z" id="Path-46" fill="#563010"></path>
                        <path d="M221,41 C222.840061,45.8347553 227.840061,54.1680887 236,66 C244.159939,77.8319113 252.493272,88.8319113 261,99 C272.659037,109.70001 279.325704,121.366676 281,134 C283.511444,152.949985 272.330004,162.049945 271,182 C270.113331,195.300037 271.446664,209.300037 275,224 C278.353413,252.524355 285.686747,278.191022 297,301 C308.313253,323.808978 321.646587,339.808978 337,349 C336.152939,347.493632 335.522819,346.370035 335.109641,345.629207 C324.967148,327.443722 317.597268,312.567319 313,301 C305.682717,282.588772 308.494677,276.777147 306,271 C305.327743,269.443195 306.128785,267.476765 306,265 C305.873453,262.566276 305.873453,257.89961 306,251 L306,195 L309,152 L297,124 L249,49 L221,39 L221,41 Z" id="Path-46" fill="#563010"></path>
                        <path d="M184,53 C184.666667,44.7777778 185,38.4444444 185,34 C185,29.5555556 184.666667,22.8888889 184,14 C192.666667,9.33333333 201,7 209,7 C214.237627,7 230.188429,14.5678722 252,38 C263.503626,50.3583223 276.304253,64.6488937 289,88 C297.463831,103.567404 303.797165,121.234071 308,141 C288,123 271,102.666667 257,80 C246.841322,63.5526172 232.338144,48.4067392 212,46 C206.872996,45.3932897 197.539663,47.7266231 184,53 Z" id="Path-44" fill="#563010"></path>
                        <path d="M184,53 L185,14 C168.512071,13.886649 157.512071,15.2199823 152,18 C132.027085,28.0733573 120.30041,44.9276937 117,52 C112.333333,62 104,83.6666666 92,117 L96,163 L104,189 L105,232 L74,299 L68,325 L79,355 L87,394 L101,370 L122,311 L143,281 L143,254 L143,228 L124.5,171 L113,139 L107,124 L115,88 L124.5,63 C128.580769,56.3629744 134.080769,52.0296411 141,50 C147.919231,47.9703589 154.919231,48.6370255 162,52 L184,53 Z" id="Path-27" stroke="#979797" fill="#3F230D"></path>
                        <path d="M171,111.958333 C177.888889,108.986111 182.888889,107.333333 186,107 C189.111111,106.666667 193.777778,107.333333 200,109 L196,116 C193.261157,114.666667 190.261157,114 187,114 C183.738843,114 180.072176,115.333333 176,118 L171,111.958333 Z" id="Path-4" fill="#E57D00"></path>
                        <path d="M184,54.0000005 C194,40.0000005 206.333333,35.0000005 221,39.0000005 C243,45.0000005 287.883837,128.069903 293,134 C296.410775,137.953399 301.744109,140.286732 309,141 C305.666667,136.333334 302.333333,133 299,131 C294,128 240,41.0000005 221,34.0000005 C208.333333,29.3333338 196,36.0000005 184,54.0000005 Z" id="Path-6" fill="#563010"></path>
                        <g id="Path-9" filter="url(#filter-6)">
                            <use fill="black" fill-opacity="1" filter="url(#filter-7)" xlink:href="#path-5"></use>
                            <use fill="#270C03" fill-rule="evenodd" xlink:href="#path-5"></use>
                        </g>
                        <path d="M185,53.9999999 C193.893465,45.382178 203.226798,42.3821781 213,45 C222.773202,47.6178219 228.773202,50.6178219 231,53.9999999 C264.613902,100.115301 284.280568,128.448634 290,139 C298.579148,154.827048 296.993116,174.662077 299,176 C301.006884,177.337922 304,151 299,145 C295.666667,141 278.333333,114 247,63.9999999 C235.165887,48.1987989 224.499221,39.5321322 215,37.9999999 C205.500779,36.4678675 195.500779,41.8012008 185,53.9999999 Z" id="Path-10" fill="#693B14"></path>
                        <g id="Path-11" filter="url(#filter-9)">
                            <use fill="black" fill-opacity="1" filter="url(#filter-10)" xlink:href="#path-8"></use>
                            <use fill="#270C03" fill-rule="evenodd" xlink:href="#path-8"></use>
                        </g>
                        <g id="Path-7">
                            <use fill="black" fill-opacity="1" filter="url(#filter-12)" xlink:href="#path-11"></use>
                            <use fill="#693B14" fill-rule="evenodd" xlink:href="#path-11"></use>
                        </g>
                        <g id="Group" filter="url(#filter-13)" opacity="0.860979353" transform="translate(109.000000, 102.000000)">
                            <path d="M1,11.4545455 C-1,13.3636364 0.839314517,21.0342559 1,21.9545455 C1.16068548,22.874835 2,21.9545455 3,22.9090909 C4,23.8636364 8,62.0454545 36,62.0454545 C50.0387306,62.0454545 62.2604566,54.9246358 68,44.8636364 C73.7078744,34.8581504 72.9861676,21.9334197 68,14.3181818 C58,-0.954545455 40,1.90909091 34,0.954545455 C28,1.9095836e-13 9.94136215,8.45591334 7,9.54545455 C4.05863785,10.6349957 3,9.54545455 1,11.4545455 Z" id="Path" fill="#FF6F11" opacity="0.806756882"></path>
                            <path d="M38,6.68181818 C17,6.68181818 10,20.0454545 10,21.9545455 C10,23.8636364 9,58.2272727 38,57.2727273 C67,56.3181818 67,24.8181818 65,21.9545455 C63,19.0909091 59,6.68181818 38,6.68181818 Z" id="Path-2" fill="#341925" opacity="0.81"></path>
                            <ellipse id="Oval" fill="#8B3800" filter="url(#filter-14)" cx="5" cy="17.1818182" rx="3" ry="1.90909091"></ellipse>
                            <path d="M1,13.3636364 C7.66666667,12.7272727 10.6666667,14 10,17.1818182 C9.33333333,20.3636364 6.33333333,21.6363636 1,21" id="Path-3" stroke="#8B3800"></path>
                        </g>
                        <path d="M185,22.0000003 L185,12.0000003 C176.333333,8.66666695 164.666667,10.0000003 150,16.0000003 C135.333333,22.0000003 122,37.3333336 110,62.0000003 L89,114 C88.7153944,115.739913 86.382061,119.739913 82,126 C78.1515382,131.497803 70.3905458,141.184944 69.7960744,141.8916 C70.3269657,142.808893 70.7282742,143.17836 71,143 C79.4594337,137.447265 84.8199046,131.83128 87,130 C90.4277036,127.120729 89.6145459,131.057618 98,109 C106.385454,86.942383 106.385454,81.0000003 115,65.0000003 C123.614546,49.0000003 139.319399,30.578054 152,22.0000003 C160.453734,16.2812978 171.453734,16.2812978 185,22.0000003 Z" id="Path-12" fill="#693B14"></path>
                        <path d="M98,124 C86.0501575,134.825756 79.3834908,141.492423 78,144 C75.9247638,147.761366 75.5738634,149.024857 78,156 C79.6174244,160.650095 82.284091,164.316762 86,167 L78,164 C74.7749077,162.076261 72.7749077,159.409594 72,156 C70.8376384,150.885609 71,146 73,142 C73.8558934,140.288213 77.371074,135.63474 82.8969957,132 C84.9519992,130.648297 89.986334,127.981631 98,124 Z" id="Path-13" fill="#563010"></path>
                        <path d="M103.531973,124 C91.5821301,134.825756 84.9154635,141.492423 83.5319726,144 C81.4567364,147.761366 81.1058361,149.024857 83.5319726,156 C85.149397,160.650095 87.8160637,164.316762 91.5319726,167 L83.5319726,164 C80.3068804,162.076261 78.3068804,159.409594 77.5319726,156 C76.369611,150.885609 76.5319726,146 78.5319726,142 C79.387866,140.288213 82.9030467,135.63474 88.4289684,132 C90.4839719,130.648297 95.5183067,127.981631 103.531973,124 Z" id="Path-13" fill="#563010"></path>
                        <path d="M109.171496,116 C97.2216531,126.825756 90.5549865,133.492423 89.1714956,136 C87.0962594,139.761366 86.7453591,141.024857 89.1714956,148 C90.78892,152.650095 93.4555867,156.316762 97.1714956,159 L89.1714956,156 C85.9464034,154.076261 83.9464034,151.409594 83.1714956,148 C82.009134,142.885609 82.1714956,138 84.1714956,134 C85.027389,132.288213 88.5425697,127.63474 94.0684914,124 C96.1234949,122.648297 101.15783,119.981631 109.171496,116 Z" id="Path-13" fill="#693B14"></path>
                        <path d="M72.1022439,139 C71.2221421,139 66.2280626,144.006549 67.1022439,151 C67.9764253,157.993451 74.4754442,163 75.1022439,163 C75.7290436,163 70.6920452,155.71841 70.1022439,151 C69.5124426,146.28159 72.9823458,139 72.1022439,139 Z" id="Path-14" fill="#563010"></path>
                        <path d="M112,166 C123.805152,193.394211 130.471819,217.060878 132,237 C134.292271,266.908684 132.002035,261.830065 118,311 C103.997965,360.169935 93.244026,379.839906 91,388 C88.755974,396.160094 92.1640994,411 94,411 C95.8359006,411 94,411 98,388 C102,365 118.220046,341.131204 127,311 C135.779954,280.868796 140,269.883189 140,237 C140,215.077874 135.666667,194.077874 127,174 L112,166 Z" id="Path-15" fill="#563010"></path>
                        <path d="M136,196 C135.355063,196.557113 135.02173,197.223779 135,198 C134.940386,200.129482 135.796551,203.708733 136,205 C140.438546,233.170977 141.820664,257.909595 137,279 C140.428694,289.34224 166.694485,263.472426 165,255 C163.666667,248.333333 162,242 160,236 C159.257541,232.810518 158.590874,230.477185 158,229 C157.409126,227.522815 156.742459,226.522815 156,226 L149,216 L136,196 Z" id="Path-8" fill="#270C03"></path>
                        <path d="M102,184 C101.368834,209.855919 95.3688342,233.189253 84,254 C66.9467487,285.216121 38.8888272,293.152724 41,295 C43.1111728,296.847276 85.0858524,282.808948 97,261 C104.942765,246.460701 106.609432,220.794035 102,184 Z" id="Path-20" fill="#563010"></path>
                        <path d="M81,275 C76.7018608,280.116985 73.3685275,286.450319 71,294 C67.4472087,305.324522 66.2864658,311.848876 65,326 C64.1423561,335.434083 64.1423561,346.767416 65,360 L65,399 C62.9951346,411.671532 62.9951346,417.004865 65,415 C67.0048654,412.995135 69.6715321,404.995135 73,391 C73,381.666667 73,371.333333 73,360 C73,343 70.5563876,346.159802 73,326 C75.4436124,305.840198 71.0136936,317.760522 81,294 C90.9863064,270.239478 97.605903,268.926835 102,257 C104.929398,249.048777 107.262731,236.048777 109,218 L109,180 L102,185 L102,218 C100.541501,233.482592 97.8748344,246.482592 94,257 C90.1251656,267.517408 85.7918323,273.517408 81,275 Z" id="Path-21" fill="#563010"></path>
                        <path d="M103,256 C100.34881,267.795475 98.3488097,276.795475 97,283 C94.9767855,292.306787 94.0158184,288.794361 93,302 C92.3227878,310.803759 92.3227878,321.803759 93,335 C95.3467176,319.413002 97.0133843,308.413002 98,302 C99.4799235,292.380497 98.1489999,297.571778 101,283 C102.900667,273.285481 104.900667,264.285481 107,256 L107,245 L103,256 Z" id="Path-22" fill="#563010"></path>
                        <path d="M97,282 C87.6665154,292.429598 81.9998488,304.429598 80,318 C77.0002268,338.355604 80,361.010763 80,371 C80,380.989237 82.0343488,390.43989 80,394 C77.9656512,397.56011 75,409.5 75,377 C75,344.5 65.7038774,352.283198 75,312 C81.1974151,285.144535 90.1974151,267.811201 102,260 L97,282 Z" id="Path-23" fill="#563010"></path>
                        <path d="M112,176 C110.825572,205.12255 109.158905,227.455883 107,243 C104.841095,258.544117 101.507762,272.210783 97,284 C86.3179265,299.843236 79.9845931,314.843236 78,329 C75.0231103,350.235147 79.8341963,373.476679 82,391 C83.4438691,402.682214 85.7772025,411.682214 89,418 C90.3333333,418.666667 91,409.666667 91,391 C91,363 125.909793,305.701041 130,268 C132.726805,242.865973 126.726805,212.199306 112,176 Z" id="Path-24" fill="#693B14"></path>
                        <path d="M186,52 C186.666667,44.1781868 187,37.8448534 187,33 C187,28.1551466 186.666667,23.4884799 186,19 C174.666667,16.3333333 165.333333,16.3333333 158,19 C147,23 113,61 108,79 C104.666667,91 99.3333333,108 92,130 C90.6980328,139.855375 89.6980328,146.855375 89,151 C88.2789526,155.281276 89.3026986,161.225263 89,164 C87.8866191,174.205992 80.6165349,185 86,185 C91.3834651,185 103,169 103,164 C103,160.666667 104.666667,149.333333 108,130 C111.333333,106.666667 114.333333,89.6666667 117,79 C118.546453,72.8141886 121.054793,58.6342207 130,52 C134.319797,48.7962184 143.653131,46.4628851 158,45 L186,52 Z" id="Path-25" fill="#563010"></path>
                        <path d="M113,135 C112.333333,151.666667 113,162 115,166 C116.087415,168.174831 117.009531,169.266968 118.041344,170.263255 C119.856133,172.01556 122.01027,173.471351 126,180 C130.172082,186.827044 133.838749,194.160377 137,202 C137.169644,200.714375 137.169644,199.714375 137,199 C136.104022,195.227012 134.568691,191.935687 134,190 C131.778636,182.439019 129.503759,176.392856 129,174 C128.247848,170.427277 127.247848,164.427277 126,156 C124.067317,153.722032 122.733983,152.055366 122,151 C120.384705,148.67743 119.430011,146.430011 118,145 C117,144 116.503678,140.834096 116,140 C115.584029,139.311147 114.584029,137.644481 113,135 Z" id="Path-26" fill="#270C03"></path>
                        <path d="M271,183 C271.700974,196.070012 269.565197,213.736678 264.59267,236 C257.133878,269.394983 258.624517,262.735373 243.942887,290 C229.261256,317.264627 221.08185,330.943114 218.704263,336 C216.326677,341.056886 205.896122,352 208.379372,352 C211.168063,351.05321 220.767752,348.202555 227.881945,336 C242.09289,311.624803 241.337763,313.500888 254.267778,290 C267.197794,266.499112 273.408538,259.414904 277.211981,236 C279.74761,220.390064 277.67695,202.723397 271,183 Z" id="Path-31" fill="#693B14"></path>
                        <path d="M190,24.0000001 L202,20.0000001 C208.199468,22.9042632 213.532801,25.9042632 218,29.0000001 C226.428185,34.8406721 237.648839,42.7315737 249,55.0000001 C279.563791,88.0335924 298.232757,123.341612 301,127 C303.767243,130.658389 305.155463,132 306,132 C306.563025,132 306.229692,130.333333 305,127 C282.667017,92.2625097 264.667017,67.595843 251,53.0000001 C230.499475,31.1062357 208,18.0000001 202,17.0000001 C198,16.3333334 194,18.6666668 190,24.0000001 Z" id="Path-33" fill="#3F230D"></path>
                        <path d="M193,14.9999998 C198.850603,12.8188318 202.850603,11.8188318 205,11.9999998 C206.694648,12.142838 208.621885,12.5406283 210,12.9999998 C216,14.9999998 230.069888,23.956859 254,48.9999998 C269.953408,65.695427 283.620075,84.3620937 295,105 L292,95.9999998 C282.990967,78.9987507 271.657633,63.332084 258,48.9999998 C237.51355,27.5018735 218.425571,14.8841445 211,10.9999998 C206.04962,8.41057002 200.04962,9.74390336 193,14.9999998 Z" id="Path-34" fill="#3F230D"></path>
                        <path d="M185,21.9999998 L185,11.9999998 C193,2.66666643 202.666667,-1.00000024 214,0.999999765 C231,3.99999976 238.420983,8.82447968 260,33.9999998 C274.386011,50.7836798 284.719345,70.4503466 291,93 L249,38.9999998 C233,22.3333331 221,12.6666664 213,9.99999976 C205,7.3333331 195.666667,11.3333331 185,21.9999998 Z" id="Path-35" fill="#693B14"></path>
                        <path d="M299,173 C293.666667,187.666667 291,201.666667 291,215 C291,228.333333 296,239 306,247 L331,262 L344,262 C332.304939,258.131277 324.304939,253.131277 320,247 C313.542592,237.803085 311.65056,233.475915 311,215 C310.34944,196.524085 317.5,195.036121 317.5,176 C317.5,163.309252 313.666667,148.642586 306,132 L299,124 C301.666667,142.363144 303,153.696478 303,158 C303,162.303522 301.666667,167.303522 299,173 Z" id="Path-38" fill="#693B14"></path>
                        <path d="M317,229 C320.910165,235.029641 325.780308,241.617612 328,245 C330.872904,249.377758 335.53957,253.377758 342,257 C327.964278,253.384909 319.630945,249.384909 317,245 C308.494219,230.823698 306.494219,220.490365 311,214 C312.768041,219.904861 314.228877,223.972586 315.382508,226.203175 C315.897768,227.19945 316.436932,228.131725 317,229 Z" id="Path-39" fill="#3F230D"></path>
                        <path d="M221,305 C225.292083,291.890097 228.625417,282.890097 231,278 C239.936163,259.597319 247.796181,249.966875 250,246 C254.623363,237.677947 267.796624,219 269,219 C270.203376,219 263.147741,230.989744 256,246 C248.852259,261.010256 253.482325,262.01551 244,278 C237.67845,288.656327 230.011784,297.656327 221,305 Z" id="Path-41" fill="#3F230D"></path>
                        <path d="M267,197 L272,172 C272.950161,203.402222 269.283494,233.402222 261,262 C252.716506,290.597778 241.383172,312.10294 227,326.515488 C236.700468,295.096504 244.700468,271.591341 251,256 C257.299532,240.408659 262.632865,220.741992 267,197 Z" id="Path-43" fill="#563010"></path>
                        <path d="M156,225 C168.666667,241.666667 183.333333,250 200,250 C216.666667,250 234.666667,237.666667 254,213 L254,231 C238,254.333333 220.461847,265.260311 201.385542,263.780934 C200.890176,263.742518 200.454132,263.940114 200,264 C187.853052,265.601795 175.186385,258.601795 162,243 L156,225 Z" id="Path-51" fill="#CF9C7B"></path>
                        <path d="M269,192 C269,192.666667 264,200.333333 254,215 L254,237 C254.058303,238.992113 254.391637,239.65878 255,239 C260.540816,233 262.386821,221.271631 265,215 C270,203 269,191 269,192 Z" id="Path-52" fill="#270C03"></path>
                        <path d="M186,34.9999995 C177.263287,30.8508443 168.596621,29.8508443 160,31.9999995 C151.403379,34.1491547 143.403379,38.1491547 136,43.9999995 C127.333333,51.3333328 123,54.9999995 123,54.9999995 C112.187878,78.9016862 106.187878,92.5683529 105,95.9999995 C103.812122,99.4316461 103.812122,103.098313 105,107 L108,95.9999995 C115.158116,76.3066304 120.158116,63.9732971 123,58.9999995 C125.841884,54.0267019 130.175218,50.0267019 136,46.9999995 C144.434172,41.3643207 152.434172,37.3643207 160,34.9999995 C167.565828,32.6356784 176.232494,32.6356784 186,34.9999995 Z" id="Path-53" fill="#3F230D"></path>
                        <path d="M93,119 C80.9734643,129.702048 73.9734643,136.368714 72,139 C69.0398036,142.946929 68.787769,146.96761 69,151 C69.1414874,153.68826 70.4748207,156.021593 73,158 C72.3333333,155.333333 72,152.666667 72,150 C72,146 71,146 73,142 C74.3333333,139.333333 81,134 93,126 L93,119 Z" id="Path-55" fill="#563010"></path>
                        <path d="M183,52.9999995 C177.21723,46.0572497 171.550564,42.0572497 166,40.9999995 C160.449436,39.9427493 152.116103,41.2760827 141,44.9999995 C149.466569,42.1047428 157.799902,41.4380761 166,42.9999995 C174.200098,44.5619229 179.866765,47.8952563 183,52.9999995 Z" id="Path-56" fill="#3F230D"></path>
                        <path d="M184,43 L184,38 C181.189073,36.9140986 178.85574,36.2474319 177,36 C175.14426,35.752568 172.477594,35.752568 169,36 L184,43 Z" id="Path-57" fill="#3F230D"></path>
                        <path d="M186,26 C184.191583,29.6855086 183.191583,34.0188419 183,39 C182.808417,43.9811581 183.308417,50.3144914 184.5,58 L186,26 Z" id="Path-58" fill="#D9A27E" filter="url(#filter-15)"></path>
                        <path d="M79,278 C65.917545,285.014138 57.5842116,289.680804 54,292 C50.4157884,294.319196 47.4157884,296.985862 45,300 L76,287 L79,278 Z" id="Path-63" fill="#3F230D"></path>
                        <path d="M306,246 L320,255 L334,265 L343,273 L324.5,266 C318.188355,263.087312 314.021688,260.920646 312,259.5 C309.978312,258.079354 307.978312,256.579354 306,255 L306,246 Z" id="Path-64" fill="#3F230D"></path>
                        <path d="M111,177 C118.086316,188.525861 119.752983,208.859194 116,238 C112.247017,267.140806 104.913684,290.807473 94,309 C110.057572,276.749046 119.057572,253.08238 121,238 C122.942428,222.91762 119.609094,202.584287 111,177 Z" id="Path-65" fill="#563010"></path>
                        <path d="M107,298 C94.1500693,311.281465 86.4834027,322.948132 84,333 C81.5165973,343.051868 82.183264,359.718535 86,383 C85.1910692,365.067895 86.5244025,349.067895 90,335 C93.4755975,320.932105 99.1422641,308.598772 107,298 Z" id="Path-66" fill="#563010"></path>
                        <path d="M180,109 C180.910288,109.064198 181.576955,109.730864 182,111 C182.423045,112.269136 182.423045,113.602469 182,115 C183.784477,113.821552 185.451144,113.154886 187,113 C188.548856,112.845114 190.215523,113.511781 192,115 C191.655378,113.367199 191.655378,112.033865 192,111 C192.344622,109.966135 193.011288,108.966135 194,108 C192,107.333333 189.666667,107 187,107 C184.333333,107 182,107.666667 180,109 Z" id="Path-68" fill="#905002" opacity="0" filter="url(#filter-16)"></path>
                        <path d="M174,114 L177,117 C177.804179,116.179162 178.804179,115.512495 180,115 C181.195821,114.487505 182.529155,114.154172 184,114 L183,108 C181.801422,107.890392 180.134755,108.223725 178,109 C175.865245,109.776275 173.865245,110.776275 172,112 L174,114 Z" id="Path-69" fill="#FF6F11" opacity="0.8" filter="url(#filter-17)"></path>
                        <path d="M198,107 L198,114 C196.785751,113.6857 195.785751,113.6857 195,114 C194.214249,114.3143 193.547583,114.647634 193,115 C192.807705,114.106867 192.474372,113.106867 192,112 C191.525628,110.893133 191.192295,109.893133 191,109 C191.666667,108.666667 192.666667,108.333333 194,108 C195.333333,107.666667 196.666667,107.333333 198,107 Z" id="Path-69" fill="#FF6F11" opacity="0.8" filter="url(#filter-18)" transform="translate(194.500000, 111.000000) scale(-1, 1) translate(-194.500000, -111.000000) "></path>
                        <path d="M114,127 L118,126 C117.807665,132.455052 118.807665,138.788385 121,145 C124.288502,154.317422 130.255736,159.744264 130,160 C129.744264,160.255736 123.552976,153.328013 120,146 C117.631349,141.114658 115.631349,134.781325 114,127 Z" id="Path-70" fill="#8B3800"></path>
                        <path d="M116,115 C117.574376,114.792834 118.907709,115.126167 120,116 C121.092291,116.873833 121.425624,117.873833 121,119 C125.9892,113.738788 130.655867,110.405455 135,109 C141.5162,106.891818 155.255975,108.51195 155,108 C154.744025,107.48805 145,104 134,107 C126.666667,109 120.666667,111.666667 116,115 Z" id="Path-71" fill="#8B3800"></path>
                        <path d="M257,114 L262,114 C262,114 261.333333,118 260,126 C258.666667,134 254.666667,141.333333 248,148 C251.860494,141.781254 254.193828,137.447921 255,135 C256.035077,131.857017 256.699887,128.400906 257,126 C257.666667,120.666667 257.666667,116.666667 257,114 Z" id="Path-72" fill="#8B3800"></path>
                        <path d="M257,102 L254,103 L253,106 C246.888514,101.853925 241.555181,99.5205921 237,99 C232.444819,98.4794079 226.111486,99.1460746 218,101 C224.083347,98.3333333 230.41668,97 237,97 C243.58332,97 250.249986,98.6666667 257,102 Z" id="Path-73" fill="#8B3800"></path>
                        <path d="M201,104 L203,105 C206.268541,100.979724 210.601875,98.3130575 216,97 C221.398125,95.6869425 229.731459,95.3536091 241,96 C235.755446,94.1156435 231.755446,93.1156435 229,93 C224.796531,92.8235843 220.004161,94.1786337 216,95 C208.058645,96.6289959 203.058645,99.6289959 201,104 Z" id="Path-75" fill="#563010"></path>
                        <path d="M197,201 C190.025363,201.367086 186.357675,201.46918 182,201 C179.957229,200.78006 177.733443,200.828316 175,200 C172.018112,199.096397 169.867444,197.414446 168,196 C166.861138,195.137399 165.527804,193.804066 164,192 L161,192 C163.776502,200.388251 168.776502,206.388251 176,210 C180,212 189.376974,214.718586 198,214 C206,213.333333 213,210.333333 219,205 C220.526057,204.449853 222.526057,202.783186 225,200 C227.473943,197.216814 230.807276,192.883481 235,187 L233,187 C223.858117,191.920229 217.19145,195.253562 213,197 C206.712825,199.619656 207.244175,200.460833 197,201 Z" id="Path-76" fill="#F29788"></path>
                        <path d="M203,202 C201.123059,203.407706 200.867799,205.715254 204,206 C207.132201,206.284746 209.913056,204.946164 214,203 C216.72463,201.702557 220.391296,199.369224 225,196 C219.19008,197.887554 214.856747,199.220887 212,200 C207.71488,201.168669 204.876941,200.592294 203,202 Z" id="Path-77" fill="#FFCDC0" opacity="0.600353423" filter="url(#filter-19)"></path>
                        <path d="M171,202 C179.212006,204.601881 184.212006,206.268548 186,207 C188.681991,208.097178 190.729094,208.981272 194,208 C197.270906,207.018728 197.782855,204.79238 196,204 C194.217145,203.20762 192.223758,204.577901 185,204 C180.184161,203.614733 175.517495,202.948066 171,202 Z" id="Path-78" fill="#FFCDC0" opacity="0.611235119" filter="url(#filter-20)"></path>
                        <path d="M162,190 C162,188.761179 176.341622,181.826085 180,181 C182.438919,180.449276 186.772252,181.115943 193,183 C196.666667,180.333333 201.666667,178.666667 208,178 C217.5,177 235,181.993789 235,183 C235,184.006211 219.642583,181.613978 208,183 C200.238278,183.924015 195.238278,185.590681 193,188 C191.118278,187.666663 189.451612,187.33333 188,187 C185.836567,186.503216 183.322595,185 180,185 C170,185 162,191.238821 162,190 Z" id="Path-79" stroke="#F29788" fill="#F29788"></path>
                        <path d="M170,191 C170.245516,192.964132 170.210928,193.158831 171,195 C171.526048,196.227446 172.526048,197.227446 174,198 L172,199 L164,192 L163,190 L170,187 C169.836322,188.357245 169.836322,189.690579 170,191 Z" id="Path-80" fill="#2A0808"></path>
                        <path d="M227,183 L227,190 L235,186 L235,184 C232.555556,183.333333 230.888889,183 230,183 C229.111111,183 228.111111,183 227,183 Z" id="Path-81" fill="#2A0808"></path>
                        <path d="M194,197 L171,196 L172,198 C172.818668,199.062261 173.485335,199.728928 174,200 C175.552841,200.817875 177.424592,200.778488 179,201 C183.081554,201.573891 188.857697,201 196,201 C198.953769,201 202.390265,200.596607 205,200 C208.423548,199.217349 210.918937,198.091476 214,197 C217.448103,195.778499 222.11477,193.445166 228,190 L194,197 Z" id="Path-84" fill="#A2564D"></path>
                        <path d="M170,187 L172,193 L194,196 L225,188 L227,183 C219.213696,182.086221 212.213696,182.086221 206,183 C199.786304,183.913779 195.45297,185.580446 193,188 C187.540499,186.139442 183.207166,185.139442 180,185 C176.792834,184.860558 173.459501,185.527225 170,187 Z" id="Path-83" fill="url(#linearGradient-21)"></path>
                        <path d="M171,190 L174,191 C174.491829,189 175.158496,188 176,188 C176.841504,188 177.841504,189 179,191 C179.548579,188.585308 180.548579,187.585308 182,188 C183.451421,188.414692 184.784755,190.081358 186,193 C187.157202,189.666667 188.490536,188 190,188 C191.509464,188 193.176131,189.666667 195,193 C196.82051,189.275059 198.487177,187.275059 200,187 C201.512823,186.724941 203.512823,188.058275 206,191 C207.051698,187.270943 208.051698,185.270943 209,185 C209.948302,184.729057 211.281635,186.06239 213,189 C215,186.555556 216.333333,185.222222 217,185 C217.666667,184.777778 218.333333,185.444444 219,187 C220.184041,185.666667 221.184041,185 222,185 C222.815959,185 223.482626,185.666667 224,187 L226,186 L226,190 C224.60715,191.739793 223.60715,192.739793 223,193 C222.39285,193.260207 221.059516,193.260207 219,193 C218.500359,194.194385 217.833693,194.861051 217,195 C216.166307,195.138949 214.832974,194.805615 213,194 C211.587465,195.804178 210.587465,196.804178 210,197 C209.412535,197.195822 208.412535,196.862488 207,196 L206,198 C204.47078,198.502656 202.804113,198.83599 201,199 C199.195887,199.16401 197.195887,199.16401 195,199 C193.666667,199.666667 192.333333,200 191,200 C189.666667,200 188.333333,199.666667 187,199 L182,199 L180,198 C179.251283,198.875214 178.251283,199.208547 177,199 C175.748717,198.791453 174.748717,198.124786 174,197 L171,196" id="Path-82" fill="#FEF5DD"></path>
                        <path d="M209,151 C231.188806,166.9017 242.855473,175.9017 244,178 C245.716791,181.14745 246.950261,182.477023 244,191 C242.033159,196.681984 239.366493,200.681984 236,203" id="Path-85" stroke="#CF9C7B" stroke-width="2" opacity="0.607747396" filter="url(#filter-22)"></path>
                        <path d="M153,157 C162.668996,171.568367 168.075757,179.9017 169.220285,182 C170.937075,185.14745 172.170546,186.477023 169.220285,195 C167.253444,200.681984 164.586777,204.681984 161.220285,207" id="Path-85" stroke="#CF9C7B" stroke-width="2" opacity="0.61" filter="url(#filter-23)" transform="translate(162.000000, 182.000000) scale(-1, 1) translate(-162.000000, -182.000000) "></path>
                        <path d="M181,224 C187.021075,220.408635 192.687742,218.408635 198,218 C203.312258,217.591365 210.645592,218.591365 220,221" id="Path-86" stroke="#CF9C7B" opacity="0.387114025" filter="url(#filter-24)"></path>
                        <polyline id="Path-87" stroke="#CF9C7B" opacity="0.430966332" filter="url(#filter-25)" points="157 213 163 228 172 240"></polyline>
                        <path d="M245,206 C242.918655,213.496024 240.585321,219.829358 238,225 C235.414679,230.170642 232.414679,234.503976 229,238" id="Path-88" stroke="#CF9C7B" stroke-width="2" opacity="0.271182106" filter="url(#filter-26)"></path>
                        <path d="M181,122 L182,125 C183.756278,123 185.756278,122 188,122 C190.243722,122 192.577055,123 195,125 L195,121 C192.856079,119.486471 190.522745,118.819804 188,119 C185.477255,119.180196 183.143921,120.180196 181,122 Z" id="Path-89" fill="#B8896A" filter="url(#filter-27)"></path>
                        <path d="M177,155 C173,157 169,161 171,164 C172.333333,166 174.666667,168.333333 178,171 L182,168 C186,171.333333 189,173 191,173 C193,173 195.333333,171.666667 198,169 L204,169 C208.666667,165.666667 211.666667,163 213,161 C215,158 205,152 204,152 C203,152 181,153 177,155 Z" id="Path-93" fill="#F1B38B"></path>
                        <path d="M183,133 C182.60284,138.758814 181.269507,144.42548 179,150 C178.377789,152.325951 178.711122,154.992618 180,158 C181.933317,162.511073 184.444089,165 190.222045,165 C196,165 198.785832,160.833059 200,158 C201.214168,155.166941 202.898279,155.09025 202,150 C201.401147,146.6065 200.401147,143.6065 199,141 L195,133 L194,127 L195,120 L196,116 L188,114 L178,117 C181.730493,121.907853 183.39716,127.241186 183,133 Z" id="Path-90" fill="url(#linearGradient-28)"></path>
                        <path d="M180,169 C176,166.333333 174.333333,164.666667 175,164 C175.666667,163.333333 178,164.666667 182,168 L180,169 Z" id="Path-91" stroke="#2F1414" fill="#2F1414" opacity="0.209235491" filter="url(#filter-29)"></path>
                        <path d="M198,168 C200.320936,165.921917 201.987603,164.588584 203,164 C206.970288,161.691769 209.517778,161.517778 210,162 C210.666667,162.666667 208.333333,165 203,169 L198,168 Z" id="Path-92" fill="#2F1414" opacity="0.207891555" filter="url(#filter-30)"></path>
                        <path d="M178,154 C177.311965,154.831905 177.311965,156.165239 178,158 C179.032053,160.752142 178.536756,159.797783 181,163 C182.642163,165.134811 183.975496,166.134811 185,166" id="Path-94" stroke="#CF9C7B" opacity="0.646344866" filter="url(#filter-31)"></path>
                        <path d="M203,154 C202.719528,156.407378 202.386195,158.074044 202,159 C201.285224,160.713774 199.943618,161.884815 199,163 C197.291624,165.01899 195.95829,166.352323 195,167" id="Path-95" stroke="#CF9C7B" opacity="0.490141369" filter="url(#filter-32)"></path>
                        <g id="Path-97" filter="url(#filter-34)">
                            <use fill="black" fill-opacity="1" filter="url(#filter-35)" xlink:href="#path-33"></use>
                            <use fill="#986650" fill-rule="evenodd" xlink:href="#path-33"></use>
                        </g>
                        <path d="M120,124.135489 C118.83296,129.539069 120.499627,137.770464 125,148.829675 C122.981614,139.891931 122.64828,132.29372 124,126.035042 C125.35172,119.776365 128.35172,115.027483 133,111.788397 C125.500373,114.616213 121.16704,118.73191 120,124.135489 Z" id="Path-96" fill="#480B07" opacity="0.8"></path>
                        <path d="M244.360477,114.347093 C243.193437,119.750672 244.860104,127.982067 249.360477,139.041278 C247.342091,130.103534 247.008757,122.505323 248.360477,116.246645 C249.712197,109.987968 252.712197,105.239086 257.360477,102 C249.86085,104.827816 245.527517,108.943513 244.360477,114.347093 Z" id="Path-96" fill="#480B07" opacity="0.8" transform="translate(250.680239, 120.520639) scale(-1, 1) translate(-250.680239, -120.520639) "></path>
                        <path d="M134,156.427885 C137.600063,158.327438 141.600063,159.277214 146,159.277214 C150.399937,159.277214 155.066604,158.327438 160,156.427885 C155,156.427885 150.333333,156.427885 146,156.427885 C141.666667,156.427885 137.666667,156.427885 134,156.427885 Z" id="Path-98" fill="#480B07" opacity="0.8"></path>
                        <path d="M221,147 C224.600063,148.899553 228.600063,149.849329 233,149.849329 C237.399937,149.849329 242.066604,148.899553 247,147 C242,147 237.333333,147 233,147 C228.666667,147 224.666667,147 221,147 Z" id="Path-98" fill="#480B07" opacity="0.8" transform="translate(234.000000, 148.424665) rotate(-9.000000) translate(-234.000000, -148.424665) "></path>
                        <path d="" id="Path-99" stroke="#979797"></path>
                    </g>
                </g>
            </g>
        </g>
    </g>
</svg>